<!-- Generated by IcoMoon.io -->
<svg version="1.1" xmlns="http://www.w3.org/2000/svg" width="32" height="32" viewBox="0 0 32 32">
<title>2</title>
<path fill="#afb1b8" d="M14.257 2.202h-0.082c-0.127-0.008-0.254-0.011-0.38-0.014v0h-0.275c-0.24 0-0.484 0.006-0.727 0.018-0.018-0.001-0.037-0.001-0.055 0-2.2 0.125-4.356 0.675-6.349 1.62l-0.261 0.126v13.368l0.611-0.207c0.536-0.184 1.107-0.35 1.698-0.504 1.598-0.41 3.239-0.628 4.888-0.649v1.756c-0.218 0.002-0.431 0.008-0.643 0.018h-0.050c-1.269 0.070-2.528 0.263-3.76 0.577-1.56 0.391-3.065 0.977-4.48 1.746v-17.145c1.469-0.857 3.051-1.5 4.7-1.911 1.447-0.374 2.935-0.566 4.429-0.571h0.258c0.309 0.008 0.609 0.022 0.892 0.043 0.744 0.052 1.483 0.17 2.207 0.352v1.729c-0.703-0.164-1.418-0.272-2.138-0.322-0.015-0.001-0.029-0.002-0.044-0.004-0.149-0.013-0.298-0.025-0.437-0.025zM17.3 3.97c0.383 0.029 0.78 0.043 1.182 0.043 1.571-0.006 3.135-0.206 4.657-0.597 1.559-0.392 3.064-0.979 4.478-1.747v16.84c-1.47 0.856-3.053 1.5-4.701 1.912-1.448 0.372-2.935 0.564-4.429 0.57-1.132 0.009-2.261-0.124-3.36-0.396v-16.949c0.26 0.060 0.527 0.115 0.799 0.161 0.446 0.075 0.916 0.131 1.375 0.164zM25.87 4.1l-0.611 0.206c-0.562 0.189-1.129 0.358-1.698 0.508-1.659 0.426-3.363 0.645-5.075 0.651-0.399 0-0.765-0.011-1.12-0.034l-0.487-0.032v13.752l0.418 0.037c0.388 0.034 0.788 0.051 1.191 0.051 1.349-0.006 2.691-0.18 3.997-0.517 1.075-0.27 2.122-0.646 3.123-1.122l0.261-0.126v-13.373z"></path>
<path fill="#afb1b8" d="M5.577 25.917c-0.088-0.091-0.194-0.163-0.311-0.21s-0.243-0.069-0.369-0.065c-0.134-0.002-0.268 0.023-0.393 0.074-0.114 0.046-0.218 0.114-0.305 0.201s-0.153 0.192-0.197 0.307c-0.048 0.121-0.072 0.249-0.070 0.379v2.291c-0.005 0.161 0.025 0.322 0.090 0.47 0.054 0.117 0.132 0.222 0.229 0.307 0.092 0.077 0.199 0.133 0.315 0.163 0.111 0.031 0.226 0.047 0.342 0.048 0.128 0.001 0.254-0.026 0.37-0.080 0.114-0.050 0.218-0.122 0.305-0.212 0.085-0.089 0.153-0.193 0.2-0.307 0.049-0.116 0.074-0.24 0.073-0.365v-0.256h-0.599v0.204c0.002 0.070-0.010 0.139-0.035 0.204-0.019 0.049-0.049 0.093-0.087 0.129-0.037 0.030-0.080 0.052-0.125 0.066-0.040 0.013-0.083 0.021-0.125 0.021-0.053 0.006-0.108-0.002-0.157-0.023s-0.092-0.056-0.124-0.099c-0.056-0.092-0.084-0.199-0.079-0.307v-2.136c-0.004-0.118 0.021-0.236 0.073-0.342 0.031-0.048 0.075-0.087 0.127-0.111s0.109-0.034 0.166-0.027c0.052-0.002 0.103 0.009 0.149 0.031s0.087 0.056 0.118 0.098c0.067 0.088 0.102 0.196 0.099 0.307v0.198h0.593v-0.233c0.001-0.137-0.024-0.273-0.073-0.401-0.044-0.12-0.112-0.23-0.2-0.322z"></path>
<path fill="#afb1b8" d="M9.134 25.891c-0.191-0.161-0.432-0.25-0.681-0.252-0.122 0.001-0.243 0.022-0.357 0.064-0.116 0.042-0.224 0.105-0.316 0.187-0.099 0.089-0.178 0.199-0.232 0.321-0.060 0.14-0.090 0.291-0.087 0.444v2.197c-0.004 0.155 0.026 0.308 0.087 0.45 0.054 0.118 0.133 0.223 0.232 0.307 0.092 0.085 0.199 0.151 0.316 0.193 0.115 0.042 0.235 0.064 0.357 0.064s0.243-0.022 0.357-0.064c0.119-0.043 0.229-0.109 0.324-0.193 0.095-0.086 0.172-0.19 0.226-0.307 0.061-0.142 0.091-0.295 0.087-0.45v-2.197c0.003-0.152-0.027-0.304-0.087-0.444-0.053-0.121-0.13-0.23-0.226-0.321zM8.855 28.853c0.005 0.059-0.003 0.117-0.024 0.172s-0.053 0.105-0.095 0.145c-0.079 0.066-0.179 0.103-0.282 0.103s-0.203-0.036-0.282-0.103c-0.042-0.041-0.075-0.090-0.095-0.145s-0.029-0.114-0.024-0.172v-2.197c-0.005-0.059 0.003-0.117 0.024-0.172s0.053-0.105 0.095-0.145c0.079-0.066 0.179-0.103 0.282-0.103s0.203 0.036 0.282 0.103c0.042 0.041 0.075 0.090 0.095 0.145s0.029 0.114 0.024 0.172v2.197z"></path>
<path fill="#afb1b8" d="M13.807 29.834v-4.159h-0.576l-0.756 2.202h-0.011l-0.762-2.202h-0.57v4.159h0.594v-2.53h0.011l0.582 1.789h0.296l0.586-1.789h0.011v2.53h0.594z"></path>
<path fill="#afb1b8" d="M17.182 25.966c-0.092-0.103-0.207-0.181-0.336-0.227-0.139-0.045-0.285-0.067-0.431-0.064h-0.883v4.159h0.593v-1.624h0.305c0.185 0.008 0.369-0.031 0.535-0.114 0.135-0.075 0.247-0.185 0.325-0.318 0.069-0.111 0.115-0.234 0.136-0.362 0.023-0.157 0.034-0.315 0.032-0.473 0.006-0.2-0.014-0.399-0.058-0.594-0.040-0.144-0.115-0.275-0.218-0.382zM16.877 27.235c-0.003 0.075-0.021 0.149-0.055 0.216-0.034 0.064-0.087 0.115-0.153 0.146-0.088 0.039-0.184 0.057-0.28 0.052h-0.27v-1.414h0.305c0.092-0.005 0.184 0.013 0.267 0.052 0.061 0.035 0.11 0.089 0.139 0.154 0.032 0.073 0.050 0.152 0.052 0.232 0 0.088 0 0.18 0 0.276s0.006 0.197 0 0.286h-0.006z"></path>
<path fill="#afb1b8" d="M19.99 25.675h-0.486l-0.916 4.159h0.593l0.174-0.894h0.808l0.174 0.894h0.593l-0.939-4.159zM19.443 28.374l0.292-1.508h0.011l0.29 1.508h-0.593z"></path>
<path fill="#afb1b8" d="M23.819 28.18h-0.011l-0.895-2.506h-0.57v4.159h0.593v-2.501h0.012l0.906 2.501h0.557v-4.159h-0.593v2.506z"></path>
<path fill="#afb1b8" d="M27.44 25.675l-0.477 1.654h-0.012l-0.477-1.654h-0.628l0.814 2.401v1.758h0.593v-1.758l0.814-2.401h-0.628z"></path>
<path fill="#afb1b8" d="M3.925 31.008h0.286v0.801h0.194v-0.801h0.284v-0.164h-0.764v0.164z"></path>
<path fill="#afb1b8" d="M6.326 30.844l-0.374 0.966h0.206l0.079-0.22h0.385l0.082 0.22h0.211l-0.383-0.966h-0.206zM6.295 31.428l0.131-0.358 0.131 0.358h-0.263z"></path>
<path fill="#afb1b8" d="M8.699 31.454h0.223v0.124c-0.065 0.052-0.146 0.081-0.229 0.081-0.039 0.002-0.078-0.005-0.113-0.021s-0.067-0.040-0.091-0.071c-0.051-0.073-0.076-0.162-0.072-0.252 0-0.215 0.093-0.322 0.278-0.322 0.049-0.005 0.097 0.008 0.137 0.036s0.069 0.070 0.081 0.117l0.191-0.037c-0.041-0.189-0.177-0.284-0.409-0.284-0.124-0.003-0.245 0.041-0.338 0.124-0.049 0.048-0.086 0.106-0.11 0.17s-0.034 0.133-0.029 0.201c-0.006 0.132 0.039 0.262 0.124 0.362 0.047 0.049 0.105 0.087 0.168 0.111s0.131 0.035 0.199 0.030c0.151 0.004 0.298-0.051 0.409-0.153v-0.381h-0.418v0.163z"></path>
<path fill="#afb1b8" d="M11.123 30.844h-0.196v0.966h0.677v-0.164h-0.481v-0.801z"></path>
<path fill="#afb1b8" d="M13.173 30.844h-0.196v0.966h0.195v-0.966z"></path>
<path fill="#afb1b8" d="M15.177 31.489l-0.396-0.645h-0.189v0.966h0.182v-0.631l0.388 0.631h0.194v-0.966h-0.179v0.645z"></path>
<path fill="#afb1b8" d="M16.988 31.385h0.481v-0.164h-0.481v-0.212h0.518v-0.164h-0.713v0.966h0.733v-0.164h-0.538v-0.261z"></path>
<path fill="#afb1b8" d="M21.381 31.225h-0.38v-0.381h-0.194v0.966h0.194v-0.422h0.38v0.422h0.194v-0.966h-0.194v0.381z"></path>
<path fill="#afb1b8" d="M23.203 31.385h0.483v-0.164h-0.483v-0.212h0.519v-0.164h-0.713v0.966h0.732v-0.164h-0.538v-0.261z"></path>
<path fill="#afb1b8" d="M25.674 31.385c0.168-0.026 0.254-0.115 0.254-0.269 0.005-0.041-0.001-0.083-0.018-0.12s-0.043-0.070-0.077-0.094c-0.087-0.044-0.185-0.064-0.283-0.057h-0.409v0.966h0.194v-0.404h0.038c0.041-0.003 0.083 0.005 0.121 0.021 0.028 0.017 0.052 0.042 0.069 0.071l0.211 0.307h0.232l-0.118-0.189c-0.052-0.093-0.125-0.173-0.214-0.232zM25.479 31.251h-0.144v-0.243h0.153c0.067-0.005 0.134 0.002 0.197 0.023 0.014 0.012 0.025 0.028 0.033 0.045s0.011 0.036 0.010 0.055c-0.001 0.019-0.006 0.037-0.015 0.054s-0.021 0.031-0.037 0.042c-0.064 0.020-0.131 0.027-0.197 0.023z"></path>
<path fill="#afb1b8" d="M27.538 31.385h0.481v-0.164h-0.481v-0.212h0.519v-0.164h-0.715v0.966h0.733v-0.164h-0.538v-0.261z"></path>
</svg>
