<!-- Generated by IcoMoon.io -->
<svg version="1.1" xmlns="http://www.w3.org/2000/svg" width="32" height="32" viewBox="0 0 32 32">
<title>4</title>
<path fill="#2196f3" d="M4.949 13.027h-0.001c-0.903 0-1.635 0.65-1.635 1.453v0.001c0 0.802 0.732 1.453 1.635 1.453h0.001c0.903 0 1.635-0.65 1.635-1.453v-0.001c0-0.802-0.732-1.453-1.635-1.453z"></path>
<path fill="#2196f3" d="M17.015 12.563c-0.003-1.114-0.502-2.182-1.388-2.97s-2.088-1.232-3.342-1.234v0c-1.254 0.002-2.457 0.446-3.344 1.234s-1.386 1.856-1.389 2.971v6.145c0 0 9.462-0.937 9.463-6.144v-0.001z"></path>
<path fill="#2196f3" d="M0 20.725c0.002 0.775 0.35 1.518 0.967 2.067s1.453 0.857 2.325 0.86c0.872-0.002 1.708-0.311 2.325-0.859s0.964-1.291 0.967-2.066v-4.276c0 0-6.584 0.652-6.584 4.275zM3.292 21.491c-0.171 0-0.337-0.045-0.479-0.129s-0.252-0.204-0.317-0.344c-0.065-0.14-0.082-0.294-0.049-0.443s0.115-0.285 0.236-0.392 0.274-0.18 0.441-0.21c0.167-0.030 0.341-0.014 0.498 0.044s0.292 0.156 0.387 0.282c0.095 0.126 0.145 0.274 0.145 0.426 0 0.101-0.022 0.201-0.065 0.294s-0.107 0.178-0.187 0.25c-0.080 0.071-0.175 0.128-0.28 0.167s-0.217 0.059-0.331 0.059v-0.003z"></path>
<path fill="#2196f3" d="M9.945 21.069h-0.635v0.656h-0.331v-1.606h1.046v0.268h-0.715v0.415h0.635v0.267zM11.536 20.958c0 0.158-0.028 0.297-0.084 0.416s-0.136 0.211-0.24 0.276c-0.104 0.065-0.223 0.097-0.357 0.097-0.133 0-0.252-0.032-0.356-0.096s-0.185-0.155-0.243-0.273c-0.057-0.119-0.086-0.256-0.087-0.41v-0.079c0-0.158 0.028-0.297 0.085-0.417s0.138-0.213 0.242-0.277c0.104-0.065 0.224-0.097 0.357-0.097s0.253 0.032 0.356 0.097c0.104 0.064 0.185 0.156 0.242 0.277s0.086 0.258 0.086 0.416v0.072zM11.201 20.886c0-0.168-0.030-0.296-0.090-0.384s-0.146-0.131-0.258-0.131c-0.111 0-0.197 0.043-0.257 0.13s-0.091 0.212-0.092 0.379v0.078c0 0.164 0.030 0.291 0.090 0.382s0.147 0.136 0.26 0.136c0.111 0 0.196-0.043 0.256-0.13s0.090-0.215 0.090-0.382v-0.078zM12.609 21.304c0-0.063-0.022-0.11-0.066-0.143s-0.124-0.069-0.238-0.106c-0.115-0.038-0.206-0.074-0.272-0.11-0.182-0.099-0.274-0.231-0.274-0.398 0-0.087 0.024-0.164 0.073-0.232s0.12-0.122 0.211-0.16c0.092-0.038 0.195-0.057 0.309-0.057s0.217 0.021 0.307 0.063c0.090 0.041 0.159 0.1 0.208 0.175s0.075 0.162 0.075 0.258h-0.331c0-0.074-0.023-0.131-0.069-0.171s-0.111-0.062-0.195-0.062c-0.081 0-0.144 0.017-0.189 0.052s-0.067 0.079-0.067 0.135c0 0.052 0.026 0.096 0.078 0.131s0.131 0.068 0.233 0.099c0.188 0.057 0.325 0.127 0.411 0.211s0.129 0.188 0.129 0.313c0 0.139-0.053 0.248-0.158 0.328s-0.247 0.118-0.425 0.118c-0.124 0-0.236-0.022-0.338-0.067s-0.179-0.108-0.233-0.186c-0.053-0.079-0.079-0.17-0.079-0.274h0.332c0 0.177 0.106 0.266 0.318 0.266 0.079 0 0.14-0.016 0.184-0.047s0.066-0.077 0.066-0.135zM14.375 20.387h-0.492v1.338h-0.331v-1.338h-0.485v-0.268h1.308v0.268zM15.531 21.029h-0.635v0.43h0.746v0.266h-1.076v-1.606h1.074v0.268h-0.743v0.383h0.635v0.259zM16.43 21.137h-0.264v0.588h-0.331v-1.606h0.597c0.19 0 0.336 0.042 0.439 0.127s0.154 0.204 0.154 0.358c0 0.11-0.024 0.201-0.072 0.275s-0.119 0.131-0.215 0.174l0.347 0.656v0.015h-0.355l-0.301-0.588zM16.166 20.869h0.267c0.083 0 0.147-0.021 0.193-0.063s0.068-0.101 0.068-0.175c0-0.076-0.022-0.135-0.065-0.179s-0.108-0.065-0.197-0.065h-0.266v0.482zM18.171 21.159v0.566h-0.331v-1.606h0.626c0.121 0 0.227 0.022 0.318 0.066s0.163 0.107 0.212 0.189c0.049 0.081 0.074 0.173 0.074 0.277 0 0.157-0.054 0.282-0.162 0.373s-0.256 0.136-0.447 0.136h-0.29zM18.171 20.891h0.296c0.088 0 0.154-0.021 0.2-0.062s0.070-0.1 0.070-0.176c0-0.079-0.023-0.142-0.070-0.191s-0.11-0.074-0.192-0.075h-0.303v0.504zM20.265 21.029h-0.635v0.43h0.746v0.266h-1.076v-1.606h1.074v0.268h-0.743v0.383h0.635v0.259zM21.8 20.387h-0.492v1.338h-0.331v-1.338h-0.485v-0.268h1.308v0.268zM22.956 21.029h-0.635v0.43h0.746v0.266h-1.076v-1.606h1.074v0.268h-0.743v0.383h0.635v0.259zM23.855 21.137h-0.264v0.588h-0.331v-1.606h0.597c0.19 0 0.336 0.042 0.439 0.127s0.154 0.204 0.154 0.358c0 0.11-0.024 0.201-0.072 0.275s-0.119 0.131-0.215 0.174l0.347 0.656v0.015h-0.355l-0.301-0.588zM23.591 20.869h0.267c0.083 0 0.147-0.021 0.193-0.063s0.068-0.101 0.068-0.175c0-0.076-0.022-0.135-0.065-0.179s-0.108-0.065-0.197-0.065h-0.266v0.482zM25.536 21.304c0-0.063-0.022-0.11-0.066-0.143s-0.124-0.069-0.238-0.106c-0.115-0.038-0.206-0.074-0.272-0.11-0.182-0.099-0.274-0.231-0.274-0.398 0-0.087 0.024-0.164 0.073-0.232s0.119-0.122 0.211-0.16c0.092-0.038 0.195-0.057 0.309-0.057s0.217 0.021 0.307 0.063c0.090 0.041 0.159 0.1 0.208 0.175s0.075 0.162 0.075 0.258h-0.331c0-0.074-0.023-0.131-0.069-0.171s-0.111-0.062-0.195-0.062c-0.081 0-0.144 0.017-0.189 0.052s-0.067 0.079-0.067 0.135c0 0.052 0.026 0.096 0.078 0.131s0.131 0.068 0.233 0.099c0.188 0.057 0.325 0.127 0.411 0.211s0.129 0.188 0.129 0.313c0 0.139-0.053 0.248-0.158 0.328s-0.247 0.118-0.425 0.118c-0.124 0-0.236-0.022-0.337-0.067s-0.179-0.108-0.233-0.186c-0.053-0.079-0.079-0.17-0.079-0.274h0.332c0 0.177 0.106 0.266 0.318 0.266 0.079 0 0.14-0.016 0.184-0.047s0.066-0.077 0.066-0.135z"></path>
</svg>
