<!-- Generated by IcoMoon.io -->
<svg version="1.1" xmlns="http://www.w3.org/2000/svg" width="32" height="32" viewBox="0 0 32 32">
<title>5</title>
<path fill="#afb1b8" d="M2.416 23.738c0.124 0.14 0.19 0.316 0.186 0.496 0.006 0.118-0.016 0.235-0.066 0.344s-0.126 0.205-0.222 0.283c-0.24 0.166-0.538 0.248-0.839 0.229h-1.475v-3.145h1.445c0.285-0.017 0.568 0.056 0.8 0.209 0.093 0.072 0.167 0.162 0.216 0.264s0.071 0.213 0.064 0.324c0.008 0.173-0.051 0.344-0.168 0.481-0.112 0.125-0.267 0.212-0.44 0.246 0.196 0.033 0.372 0.128 0.498 0.269zM0.686 23.264h0.617c0.14 0.009 0.28-0.028 0.393-0.104 0.046-0.038 0.082-0.086 0.105-0.139s0.032-0.111 0.027-0.168c0.004-0.057-0.005-0.114-0.028-0.167s-0.058-0.101-0.103-0.14c-0.116-0.079-0.26-0.117-0.404-0.106h-0.607v0.825zM1.757 24.47c0.050-0.039 0.089-0.089 0.114-0.144s0.036-0.115 0.032-0.175c0.004-0.061-0.008-0.121-0.034-0.177s-0.065-0.106-0.116-0.145c-0.121-0.082-0.269-0.122-0.419-0.114h-0.648v0.865h0.656c0.148 0.008 0.294-0.031 0.414-0.109z"></path>
<path fill="#afb1b8" d="M5.369 25.090l-0.804-1.229h-0.302v1.229h-0.691v-3.145h1.309c0.33-0.021 0.656 0.075 0.911 0.267 0.183 0.171 0.293 0.396 0.311 0.634s-0.058 0.475-0.214 0.667c-0.161 0.169-0.382 0.282-0.624 0.32l0.856 1.257h-0.752zM4.264 23.433h0.565c0.393 0 0.589-0.159 0.589-0.476 0.004-0.065-0.007-0.13-0.032-0.191s-0.063-0.116-0.113-0.163c-0.124-0.094-0.284-0.14-0.445-0.128h-0.572l0.007 0.957z"></path>
<path fill="#afb1b8" d="M9.148 24.457h-1.378l-0.243 0.633h-0.725l1.265-3.11h0.784l1.26 3.11h-0.725l-0.238-0.633zM8.963 23.981l-0.503-1.327-0.503 1.327h1.007z"></path>
<path fill="#afb1b8" d="M13.878 25.090h-0.686l-1.539-2.139v2.139h-0.685v-3.145h0.685l1.539 2.151v-2.151h0.686v3.145z"></path>
<path fill="#afb1b8" d="M17.794 24.338c-0.142 0.237-0.358 0.431-0.621 0.555-0.299 0.138-0.63 0.206-0.965 0.198h-1.222v-3.145h1.222c0.334-0.008 0.665 0.058 0.965 0.194 0.263 0.121 0.479 0.312 0.621 0.548 0.141 0.256 0.215 0.538 0.215 0.825s-0.074 0.569-0.215 0.825zM17.009 24.262c0.196-0.209 0.304-0.475 0.304-0.751s-0.108-0.542-0.304-0.75c-0.237-0.189-0.545-0.285-0.859-0.267h-0.476v2.036h0.476c0.314 0.018 0.622-0.078 0.859-0.267z"></path>
<path fill="#afb1b8" d="M9.578 4.453c0 0 8.858 3.062 8.67 7.493v7.494c0 0-8.851-3.063-8.666-7.494l-0.003-7.493z"></path>
<path fill="#afb1b8" d="M26.139 17.685c1.673-1.054 3.608-1.707 5.628-1.899v-2.346c-2.327 0.821-4.302 2.311-5.628 4.245z"></path>
<path fill="#afb1b8" d="M25.134 18.392c1.369-2.524 3.743-4.472 6.633-5.443v-6.76c0 0-12.615 4.362-12.348 10.671v10.67c0 0 0.562-0.195 1.446-0.561 0-0.341 0-0.685 0.040-1.031 0.261-2.929 1.782-5.644 4.228-7.546z"></path>
<path fill="#afb1b8" d="M23.934 22.356c0.066-0.74 0.214-1.472 0.441-2.185-1.523 1.643-2.446 3.682-2.638 5.83-0.018 0.203-0.029 0.406-0.034 0.615 0.716-0.315 1.55-0.708 2.426-1.171-0.224-1.016-0.29-2.056-0.196-3.090z"></path>
<path fill="#afb1b8" d="M24.436 22.394c-0.084 0.935-0.032 1.876 0.156 2.798 3.446-1.888 7.319-4.806 7.17-8.332v-0.307c-2.462 0.252-4.766 1.238-6.557 2.805-0.419 0.971-0.678 1.994-0.768 3.036z"></path>
</svg>
