<!-- Generated by IcoMoon.io -->
<svg version="1.1" xmlns="http://www.w3.org/2000/svg" width="32" height="32" viewBox="0 0 32 32">
<title>6</title>
<path fill="#afb1b8" d="M16.145 15.628c-0.151-0.201-0.223-0.438-0.206-0.677v-0.982c0-0.301 0.068-0.53 0.205-0.686s0.371-0.234 0.703-0.234c0.312 0 0.534 0.067 0.665 0.2 0.143 0.17 0.213 0.378 0.197 0.587v0.231h-0.559v-0.234c0.002-0.076-0.003-0.153-0.016-0.229-0.008-0.052-0.036-0.1-0.080-0.136-0.057-0.039-0.13-0.058-0.202-0.053-0.077-0.005-0.152 0.015-0.213 0.056-0.049 0.040-0.081 0.093-0.093 0.15-0.016 0.080-0.023 0.161-0.022 0.243v1.191c-0.009 0.115 0.016 0.23 0.072 0.335 0.028 0.035 0.066 0.063 0.111 0.081s0.095 0.024 0.144 0.019c0.072 0.005 0.143-0.014 0.198-0.054 0.046-0.039 0.075-0.090 0.083-0.145 0.013-0.079 0.019-0.159 0.017-0.239v-0.242h0.559v0.221c0.016 0.218-0.052 0.435-0.193 0.617-0.128 0.146-0.347 0.219-0.668 0.219s-0.564-0.078-0.702-0.24z"></path>
<path fill="#afb1b8" d="M18.47 15.638c-0.141-0.153-0.212-0.375-0.212-0.67v-1.032c0-0.292 0.071-0.512 0.212-0.662s0.377-0.224 0.708-0.224c0.328 0 0.563 0.075 0.704 0.224s0.213 0.37 0.213 0.662v1.032c0 0.292-0.072 0.515-0.215 0.669s-0.377 0.231-0.702 0.231c-0.325 0-0.566-0.078-0.708-0.23zM19.438 15.391c0.051-0.096 0.074-0.2 0.067-0.306v-1.264c0.006-0.103-0.016-0.206-0.066-0.3-0.028-0.036-0.068-0.065-0.114-0.082s-0.097-0.024-0.147-0.018c-0.050-0.006-0.101 0-0.148 0.018s-0.086 0.046-0.115 0.082c-0.051 0.093-0.074 0.196-0.067 0.3v1.27c-0.007 0.105 0.016 0.21 0.067 0.306 0.033 0.032 0.073 0.058 0.118 0.076s0.094 0.027 0.144 0.027c0.049 0 0.098-0.009 0.144-0.027s0.085-0.043 0.118-0.076v-0.006z"></path>
<path fill="#afb1b8" d="M20.767 13.080h0.601l0.452 1.905 0.463-1.905h0.585l0.059 2.749h-0.433l-0.046-1.911-0.446 1.911h-0.347l-0.463-1.918-0.043 1.918h-0.437l0.054-2.749z"></path>
<path fill="#afb1b8" d="M23.602 13.080h0.937c0.54 0 0.81 0.26 0.81 0.781 0 0.499-0.284 0.747-0.852 0.747h-0.319v1.222h-0.578l0.003-2.749zM24.402 14.255c0.057 0.006 0.115 0.002 0.17-0.013s0.105-0.040 0.148-0.074c0.066-0.093 0.096-0.202 0.083-0.31 0.003-0.084-0.006-0.168-0.028-0.25-0.008-0.027-0.023-0.053-0.043-0.075s-0.045-0.041-0.073-0.055c-0.080-0.033-0.169-0.048-0.258-0.044h-0.224v0.822h0.224z"></path>
<path fill="#afb1b8" d="M26.182 13.080h0.621l0.637 2.749h-0.539l-0.126-0.634h-0.554l-0.13 0.634h-0.547l0.637-2.749zM26.713 14.877l-0.216-1.154-0.216 1.154h0.433z"></path>
<path fill="#afb1b8" d="M27.955 13.080h0.405l0.775 1.568v-1.568h0.48v2.749h-0.385l-0.779-1.637v1.637h-0.496l0.001-2.749z"></path>
<path fill="#afb1b8" d="M30.739 14.782l-0.644-1.697h0.542l0.393 1.090 0.369-1.090h0.531l-0.636 1.697v1.048h-0.555v-1.048z"></path>
<path fill="#afb1b8" d="M17.038 17.032v0.144h-0.472v1.117h-0.198v-1.117h-0.474v-0.144h1.144z"></path>
<path fill="#afb1b8" d="M18.517 18.293h-0.153c-0.015 0.001-0.031-0.003-0.043-0.012-0.012-0.007-0.020-0.017-0.025-0.029l-0.136-0.3h-0.655l-0.136 0.3c-0.004 0.013-0.011 0.024-0.021 0.034-0.012 0.008-0.027 0.013-0.043 0.012h-0.153l0.578-1.261h0.201l0.585 1.256zM17.559 17.825h0.546l-0.231-0.513c-0.017-0.039-0.031-0.078-0.043-0.119-0.008 0.024-0.015 0.047-0.022 0.067l-0.021 0.053-0.229 0.512z"></path>
<path fill="#afb1b8" d="M19.514 18.169c0.036 0.002 0.073 0.002 0.109 0 0.031-0.003 0.062-0.008 0.093-0.015 0.028-0.006 0.056-0.014 0.083-0.023 0.025-0.009 0.051-0.020 0.077-0.031v-0.284h-0.231c-0.006 0-0.011-0-0.017-0.002s-0.010-0.004-0.014-0.008c-0.004-0.003-0.007-0.006-0.009-0.010s-0.003-0.008-0.003-0.013v-0.097h0.449v0.483c-0.037 0.023-0.075 0.043-0.116 0.060s-0.084 0.032-0.128 0.043c-0.047 0.012-0.096 0.021-0.145 0.026-0.056 0.005-0.112 0.008-0.169 0.008-0.1 0.001-0.199-0.015-0.291-0.047-0.087-0.030-0.165-0.075-0.231-0.132-0.064-0.058-0.115-0.125-0.149-0.2-0.036-0.084-0.055-0.172-0.053-0.262-0.001-0.090 0.016-0.179 0.052-0.264 0.033-0.075 0.084-0.143 0.149-0.2s0.145-0.101 0.231-0.131c0.099-0.032 0.204-0.048 0.31-0.047 0.054-0 0.108 0.004 0.161 0.011 0.047 0.007 0.093 0.017 0.138 0.032 0.040 0.013 0.079 0.030 0.116 0.050 0.035 0.020 0.069 0.042 0.101 0.066l-0.056 0.078c-0.004 0.007-0.011 0.013-0.019 0.017s-0.017 0.007-0.026 0.007c-0.013-0-0.025-0.004-0.036-0.010-0.017-0.008-0.036-0.018-0.057-0.030-0.025-0.013-0.051-0.025-0.077-0.034-0.034-0.012-0.070-0.021-0.106-0.028-0.048-0.008-0.098-0.011-0.147-0.011-0.076-0.001-0.152 0.011-0.223 0.035-0.064 0.022-0.122 0.056-0.17 0.1-0.048 0.045-0.085 0.099-0.108 0.157-0.052 0.137-0.052 0.284 0 0.42 0.025 0.059 0.065 0.113 0.116 0.159 0.047 0.043 0.105 0.077 0.169 0.1 0.074 0.022 0.151 0.030 0.229 0.025z"></path>
<path fill="#afb1b8" d="M21.357 18.149h0.631v0.144h-0.825v-1.261h0.198l-0.005 1.117z"></path>
<path fill="#afb1b8" d="M22.645 18.293h-0.198v-1.261h0.198v1.261z"></path>
<path fill="#afb1b8" d="M23.381 17.038c0.012 0.006 0.022 0.014 0.030 0.023l0.845 0.951c-0.001-0.015-0.001-0.030 0-0.045 0-0.014 0-0.028 0-0.041v-0.899h0.172v1.266h-0.099c-0.015 0.001-0.029-0.001-0.043-0.007-0.012-0.006-0.023-0.014-0.031-0.024l-0.844-0.95c0 0.015 0 0.029 0 0.043s0 0.027 0 0.039v0.899h-0.165v-1.261h0.103c0.011 0 0.022 0.002 0.032 0.006z"></path>
<path fill="#afb1b8" d="M25.885 17.032v0.139h-0.701v0.416h0.568v0.134h-0.568v0.43h0.701v0.139h-0.904v-1.258h0.904z"></path>
<path fill="#afb1b8" d="M5.161 9.244l8.781 2.153v7.543l-8.781-2.152v-7.544zM4.598 8.601v8.554l9.907 2.429v-8.553l-9.907-2.43z"></path>
<path fill="#afb1b8" d="M9.908 23.555l-9.908-2.431v-8.553l9.908 2.43v8.554z"></path>
<path fill="#afb1b8" d="M4.762 9.148l8.667 2.126-3.686 3.183-8.668-2.127 3.687-3.182zM4.598 8.601l-4.598 3.97 9.908 2.43 4.597-3.97-9.907-2.43z"></path>
<path fill="#afb1b8" d="M10.465 23.074l4.040-3.488-4.040-0.991v4.48z"></path>
</svg>
